<svg xmlns="http://www.w3.org/2000/svg" viewBox="0 0 341.84 247.1"><path d="M8.92,233.06c.77,3.65,3.27,5.9,8,5.9,4.24,0,7-1.92,7-4.94,0-9.42-22.84-3.65-22.84-19.93,0-7.56,6.74-13.13,15.59-13.13s14.83,5,15.92,12.24L23.68,215c-.77-3.78-3.08-6-7.32-6-3.78,0-6.16,1.92-6.16,4.87,0,8.65,22.85,2.89,22.85,19.87,0,7.62-7,13.33-16.37,13.33S1,242,0,234.79Z" style="fill:#36b18e"/><polygon points="56.91 209.41 43.05 209.41 43.05 201.6 79.63 201.6 79.63 209.41 65.77 209.41 65.77 246.46 56.91 246.46 56.91 209.41" style="fill:#36b18e"/><path d="M111.38,239c8.15,0,14.44-6.47,14.44-14.93s-6.29-15-14.44-15-14.5,6.54-14.5,15S103.17,239,111.38,239m0-38c13.29,0,23.55,10.06,23.55,23.07s-10.26,23.07-23.55,23.07S87.77,237,87.77,224,98,201,111.38,201" style="fill:#36b18e"/><polygon points="148.4 201.6 157.25 201.6 157.25 221.01 174.45 201.6 185.49 201.6 169.19 219.86 187.74 246.46 177.08 246.46 163.22 226.72 157.25 233.38 157.25 246.46 148.4 246.46 148.4 201.6" style="fill:#36b18e"/><path d="M217.88,238.89a5.5,5.5,0,0,0,5.84-5.64c0-3.2-2.31-5.57-5.84-5.57h-10.2v11.21ZM216,220.37a5.6,5.6,0,0,0,5.91-5.64c0-3.2-2.44-5.57-5.91-5.57h-8.34v11.21ZM199.08,201.6h17.33c8.21,0,13.67,5.32,13.67,12.43a11.27,11.27,0,0,1-4.56,9.29,11.09,11.09,0,0,1,7.12,10.7c0,7-5.45,12.44-12.89,12.44H199.08Z" style="fill:#36b18e"/><path d="M268.12,239c8.15,0,14.44-6.47,14.44-14.93s-6.29-15-14.44-15-14.5,6.54-14.5,15S259.91,239,268.12,239m0-38C281.4,201,291.67,211,291.67,224S281.4,247.1,268.12,247.1,244.51,237,244.51,224,254.77,201,268.12,201" style="fill:#36b18e"/><polygon points="315.27 224.16 299.23 201.6 309.95 201.6 320.6 216.91 331.38 201.6 341.84 201.6 325.8 223.9 341.84 246.46 331.13 246.46 320.41 231.08 309.69 246.46 299.23 246.46 315.27 224.16" style="fill:#36b18e"/><path d="M116.47,138.33l1.24-.53h0L95.85,87.23l7,4a2.69,2.69,0,0,0,4-2.32V43.9l40.06-23.13,6.51,19.31L128.28,54.63l-1.38.84v48.12a2.71,2.71,0,0,0,1.32,2.32l11.22,6.56L117.71,137.8Zm89.76-81.12L170.9,77.54,135.43,57.07l26.81-15.51,8.77-5Zm2.69,32.45,0,13.24-35.16,19.75V82.47L209,62.14l-.09,26.43Zm-75.64,12.59-.69-.41,0-39.85L168,82.45l0,40.35-19.89-11.75.13-.14Zm68.78-90-6.92,3.95a2.68,2.68,0,0,0,0,4.64l39.66,23.3-.19,46-20-4.16.08-28.79a2.66,2.66,0,0,0-1.32-2.32L173,31.1,171.06,30l-12.6,7.21L148,6.19l.16-1.34L148,6.19ZM212.9,131.63a2.69,2.69,0,0,0-2.69,0L170.32,154,131.18,130.8l13.2-15.38,24.79,14.64,1.42.85,42.5-23.85,1.47-.8,0-14.5,32.47,6.8L214.11,142l.1-8a2.67,2.67,0,0,0-1.31-2.34m41.91-35.95a2.65,2.65,0,0,0-2-1.69l-12.61-2.63.23-48.75.05-1.68L202.44,18.59l10.39-5.94a2.68,2.68,0,0,0-1-5L144,0a2.68,2.68,0,0,0-2.85,3.51l4,11.76L102.43,39.9l-1.24.71,0,43.15-10.33-6a2.69,2.69,0,0,0-3.81,3.39l27.18,63,1.78,4.26,11.37-13.26,41.4,24.53,1.42.85,38.22-21.48L208.3,151a2.69,2.69,0,0,0,4.83,1.65l41.31-54.39a2.65,2.65,0,0,0,.37-2.56" style="fill:#36b18e"/></svg>